<svg xmlns="http://www.w3.org/2000/svg" width="300" height="200" version="1"><path d="M217 181l-7-3-4-2-8-3-4-2-4-3-7-4c-5-5-9-7-16-8-7-2-15-7-16-9 0-2-1-2-4-2-2 0-4-1-5-3l-4-2-6-3-8-3c-5 0-8-2-9-6-1-3-8-5-17-5l-8-1-4-3-6-4-4-4-8-8c-4-4-9-9-12-10-4-2-6-5-8-8-1-3-3-4-5-5-2 0-2-1-2-3 0-1 0-3-2-4-3-2-4-6-2-7l1-5 4-7c2-2 3-3 3-6 0-2 0-4 2-5l2-3c0-2 8-10 8-9l-1 6c-2 7-1 9 2 7s6-2 9 1c2 2 8 2 9 0 3-2 2-4-1-5l-3-3c0-3 6-6 7-3l4 1 5 1 6-1 7-1-5-4-9-5c-4-3-9-3-11-1-1 1-3 2-6 1-4 0-5 0-8 2-2 1-3 2-4 1-1-2 0-5 3-4h2l2-3c2-2 3-2 9-2l9 2c1 1 3 2 5 1 3 0 5 1 14 5a52 52 0 0 0 16 7c1 1 10 5 13 5l4 2 6 1c2 0 4 1 7 5 4 4 5 5 7 4l13 3 12 4 18 8 6 3 15 4 9 2 7 2 10 5c7 4 10 5 12 4 3 0 4 0 5 2l6 2c3 1 4 2 6 6l3 6 1 6 1 5 1 2v7l-2 13c0 10-1 12-2 15l-2 5-2 5c-2 2-2 2-6 1-6-2-7-1-14 4l-5 4-3 2c-2 2-3 3-6 3s-5 0-5 2c-3 4-5 6-11 6l-5-1zM55 67c2-2 2-3-1-4-3 0-3 0-3-6v-5c-2 0-3 3-4 8-1 4 0 5 1 5l3 2c1 2 2 2 4 0z" fill="#eee5d5"/><path d="M215 179l-5-2-5-2-6-2-4-2-6-5-10-6c-3-3-6-4-7-4-8 0-17-6-20-11-1-2-2-2-4-2-2 1-3 0-6-2l-4-3-6-2-8-3c-3 0-8-3-8-6l-3-2-5-2-8-2c-9 0-11-1-8-3l3-1 9 1c6 0 6 0 8-3 1-2 2-5 9-12 3-4 7-5 9-2 2 2 2 4 0 6-1 2-2 2-3 1-2-1-2-1-5 4l-2 6c0 2 3 0 5-2l4-3c2 1 12-7 14-10 3-6 10-10 10-5l1 2c2 0 4-2 4-4 0-3 3-7 8-9l4-4c0-2 1-3 2-3 3-1 3-1 1-3-2-3-2-3 1-3 4-1 5 0 3 3-3 5-3 5 2 4l8-1c4 0 10-4 12-7 1-3 4-3 5-1l7 1 8 1 8 2c3 1 10 3 17 7 9 5 11 5 13 5 2-1 3-1 6 2l4 4 1 2 1-2 1-1c2 0 5 6 5 9l2 5 2 6 1 3v3l-1 1v3l-2 9c-1 12-1 15-3 17l-1 5c0 5-3 7-8 6s-9 1-21 10l-5 3c-4 0-7 1-9 5s-2 4-7 4-6-1-8-3zm-41-42l-1-1-1 1 1 1 1-1zm75-1h-2l-1 1h1l2-1zm-88-2c-1-1-2 0-1 2h1v-2zm-2-7l1-7c0-4 2-3 3 2 1 3 2 6 4 7 1 3 2 3 2 1l1-11v-8l1 2c1 10 3 13 4 6l4-8 3-6 1-4c2-3 2-3-4 1l-10 4c-6 3-14 13-14 19l2 7 2-5zm-80-15c-4-5-3-6 2-5 4 1 6 3 6 7s-3 3-8-2zm34-5l2-4c2-4 3-3 2 1 0 2-3 4-4 3zm-28-4l-2-2-3-3c-1-4-2-5-5-5-2 1-4 0-5-1l-5-2c-3 0-4 0-4-3s0-3 3-5l5-6c2-3 2-3-1-6-2-2-2-2-5-1s-7 9-7 13l2 6c2 3 1 4-4 2-4-3-5-6-3-8 1-1 2-2 2-5l4-8c3-3 6-5 8-5l4-1 6-2c3 0 4 0 5 3l3 5 1 4 4 4c4 2 7 5 7 8 0 2 0 2 2-1 1-2 4-4 6-4 3-2 3-1 4 0s2 2 4 1l3-1 1 5-1 8c-1 4-10 11-10 8 0-2-4-1-10 1-6 3-8 3-9 1zm12-8l-1-1-1 2 1 1 1-2zm23 2c0-2 4-6 8-8l4-2c0-2 6-7 8-8 2 0 3-1 3-2l-7-5c-2 0-9-5-9-6 0-4 6-6 7-2 0 2 1 2 4-2l6-4 2 2 3 2h2c2 1 2 1 0 2l-1 6c1 4 1 5-3 9l-7 6-10 6-10 7v-1zm2-12c-1-2-1-8 1-10l3 1 5 2c3 1 2 4-3 6s-5 2-6 1zm-22-9l4-5 5-6h-3c-3 0-3-1 1-6l4-3h-4l-5 1c-1 1-2 1-2-1s-1-2-4-2c-4 1-4 1-4-1 0-3 7-6 10-6s4 3 1 5l-1 2 3-1c2-3 9-3 9 0l5-1c4-2 5-2 6 0 2 1 2 2-1 4-2 3-2 3 0 4 4 1 2 4-4 5-5 2-7 4-7 7 1 2 0 3-5 3l-6 1h-2zm13-13c1-1 0-1-1-1-2 1-2 2 0 2l1-1zm68 10c1-1 5-2 5 0l-3 1c-3 1-4 1-2-1zm-63-1c0-2 2-3 5-3h2l-2 2c-3 3-5 3-5 1zm-82-2c0-1 0-3 2-5l2-6c0-2 4-6 5-5 2 2-5 18-7 18l-2-2zm129 1c0-1 2-2 6-2 3 0 4 1 2 2h-8zm24-5c-9-5-11-6-8-6s11 3 12 5l3 2c2 1 4 3 2 3l-9-4zM53 60l1-10c1-2 7-5 9-4 4 2 2 10-3 13-3 2-6 2-7 1zm-7-10c-1-1 0-3 2-6l2-4 2-3c2-2 2-1 1 4-1 6-4 11-7 9zm95-5l1-1 1 1-1 1-1-1zm-20-6l1-1 2 1-2 1-1-1zm-6-3l1-1 2 1-1 1-2-1zM91 25l1-1 1 1-1 1-1-1zm-25-3c-1-2 1-3 4-3 5 0 5 1 2 3h-6z" fill="#e3cfb0"/><path d="M215 179l-4-3-5-2-7-2-5-2c0-2-1-2-2-2l-8-6c-7-6-11-8-12-8-2 1-10-1-14-4-5-3-9-10-7-12l2 1c3 2 4 2 4 0l5 4c6 6 8 7 8 3 0-3 0-3 3 0 4 3 5 1 3-5l1-9v-7c0-4 0-6 4-15a76 76 0 0 1 9-15l-9 4-12 6-11 8c-7 6-12 9-17 10l-4 3c-3 2-3 3-1 6 3 6 2 6-4 2-3-2-5-2-7-2-4 1-7-1-9-5-1-2-2-3-8-5l-7-2h6c5 0 6 0 6-2l2-5 4-5c7-9 7-8 2 3-3 6-4 8-3 9 2 1 2 1 9-3 8-4 19-13 19-15l1-2c2-2 2-2 3 0l3 2 11-6c7-3 11-6 11-8 2-3 8-7 11-6 2 0 4 0 7-2 8-5 21-7 27-5l9 3 16 6c7 4 11 6 13 5 2 0 8 4 8 6s2 3 4 2c1-1 2-1 2 1v3c-2 2-2 3 0 4 3 1 5 4 6 11v8l-2 8-1 9-1 3c1 1 0 3-1 4l-1 5c1 5-1 7-7 6-5-1-8 0-14 5l-5 4-3 2-6 2c-4 1-5 2-7 5-2 5-2 5-7 5s-6-1-8-3zm33-41c2-2 2-3 0-3s-5 2-4 3h4zm-104 3c-2-3-2-4 0-4s5 3 4 5c-1 1-3 1-4-1zm24 0c-2-1-2-2 0-2l1 3-1-1zm-87-28c-3-4-2-5 1-4 2 1 3 2 3 4 0 3-2 3-4 0zm4-13c-2-1-4-4-4-6-2-2-2-3-5-3-6 1-14-5-10-7 2-2 7-10 7-13s0-5 2-5l2-1c1 0 7 13 7 16s0 3 1 1c3-2 6-2 7 0 1 4 1 16-1 18-2 3-3 3-6 0zm18-6l1-2 1 1-1 1h-1zm59-2c0-2 4-4 5-3s-2 4-4 4l-1-1zm-53-3l1-2c2-2 2-2 2 0-1 2-3 4-3 2zm-9-4c1-3 3-3 2-1l-2 2v-1zm25-3l3-2c2 0 0 2-1 2h-2zM36 69l2-3 2-4c0-3 1-6 3-6 1 0 0 5-3 10s-4 6-4 3zm153-4l-2-2c1-1 5 1 6 3l-4-1zM54 59c-1-2 2-8 4-10 6-4 8 3 3 8-3 3-6 3-7 2zm-8-11l2-3 2-4c0-2 1-3 2-3 1-1 0 5-2 8-1 3-4 4-4 2zm21-28l4-1c3 0 3 0 1 1h-5z" fill="#d3b592"/><path d="M216 179l-4-3-6-2c-2-2-5-2-6-2-2 0-4-1-5-3l-12-10c-3 0-5-7-4-13l-1-8v-4l1-9c0-5 0-8 3-15l7-11c4-4 5-5 2-5s-26 12-32 16c-8 7-11 9-13 9l-3 1-7 1-7 3h-3c-2-3-2-4 4-7l10-7 9-5c9-3 27-13 28-15 2-4 5-5 8-5l9-4 9-4 8-2 7 1 10 3c7 1 25 10 28 13l3 3v-2l2-2 4 4 2 3 3 4 2 5c2 0 5 4 4 5v3c2 3 2 8 0 10l-1 3c1 1 0 4-1 6l-2 6-2 3-2 4 2 4c4 5 1 8-5 7-5 0-8 1-14 5l-5 4-3 2-6 2c-4 1-8 4-9 8 0 2-1 2-5 2-4 1-5 0-7-2zm34-42c1-1 0-3-2-3l-4 2c-3 2-3 2-2 3 3 1 6 0 8-2zm-38-7c1-2 0-3-1-1-2 2-2 3 0 3l1-2zm58-18c-2-1-5 0-4 2l3-1 1-1zm-20-14c0-1-5-5-6-4s4 6 5 6 2-1 1-2zm-39-8c-4-3-5-1-2 1 2 2 3 2 4 1l-2-2zm-92 41c-2-2-2-5 0-5s6 3 5 5h-5zM85 97l-2-5c-1-3-1-3-6-3-4 1-5 0-7-1-2-3-2-3-1-6l4-5c2-1 3-3 3-5 0-6 5 3 6 11 0 4 1 5 2 5l3-2c1-2 3-3 4-2l-1 3v7c1 4 1 7-1 7l-4-4zM36 69l1-2 1 1-1 1h-1zm20-13c0-2 3-5 4-5 2 0 2 2-1 4-2 3-3 3-3 1z" fill="#b99e50"/><path d="M218 181l-1-1c0-2-4-5-6-5l-2-2c0-1-3-2-7-2-6-1-6-1-6-4 0-2-1-3-4-5-8-4-9-5-10-8l-1-17c-1-16 0-22 4-26l3-6c1-3 2-3 5-3s4 0 8 4 4 4 5-1c0-2 1-3 2-2 4 1 5 0 5-3 0-5 2-9 4-9v-1l-4-1-4-1c-1-2-5 0-6 3-1 2-4 2-5 1-1-2-3-1-12 3a1203 1203 0 0 1-26 13c-3 3-7 5-16 8l-12 3 2-3c2 0 5-3 7-5l9-5a175 175 0 0 0 37-19l7-4c6-4 7-4 12-4l8-1h4l10 2c7 2 14 5 22 10 3 2 4 3 4 5l1 3 2 3c0 2-1 3-3 3-3 0-3-1-2-3 0-2 0-3-3-5-4-4-6-5-8-3h-4l-3 1 1 1c3 0 3 2 1 4-3 2-8 2-11 0l-5-1c-3 1-3 1-2 3 1 3 0 8-2 9-3 2-3 9-1 12 2 1 2 2 1 2-2 0-10 7-10 8s1 2 3 2c3 0 4-1 5-3l3-3c2-2 3-9 2-11l-1-1c2 0 3-3 4-8 0-3 4-4 6-2l2 3c2 1 5 0 5-2l6-8c1-2 5 0 5 3l-2 4c-3 2-3 3-1 5 1 2 1 2 5 0 5-3 7-3 10 0l4 2 1 2c1 2 1 3 3 2l6-1c3 0 3 1 4 3l-1 5-1 5c1 1 0 1-1 1l-4 6c-2 5-2 5-6 5-4 1-6 2-4 6 1 3 2 4 3 3 3 0 8 3 8 5s-4 3-7 2-7 1-12 5l-5 4-4 2-5 2c-6 1-6 2-7 4l-3 3c-2 0-3 1-3 3 0 1-1 2-3 2l-3-1zm-4-10l-2-1-2 1 2 1 2-1zm7-3l-1-1-1 1 1 1 1-1zm38-17l-2 1-1 3 1-1 2-3zm-26-2c3-4 6-4 8-2 1 2 4 2 3 0l-2-3h-7c-4 1-7 3-7 6 0 2 1 2 5-1zm-37-6v0zm27-4l-2-1-1 2c0 2 0 3 1 2l2-3zm27-1l1-3c-1-2-6-2-7 0l-3 2c-1 0-2 1-1 2 2 1 8 1 10-1zm-25-5c1-2 1-2-1-2s-3 1-2 3c1 1 2 1 3-1zm-30-6v-3l-2 1c-1 4-1 5 2 2zm30-33c0-1-3-3-5-3-1 0-1 1 1 2 2 3 4 3 4 1zm0 87l2-1c1 1 1 2-1 2l-1-1zm-106-51v-2h2l2 2h-4zm145-28l1-1 1 1-1 1-1-1zM72 86c-2-2-1-5 2-6l4 1c2 3 2 3 0 5s-5 2-6 0z" fill="#a55e2d"/><path d="M219 179c2-3 3-2 2 0l-2 2h-3l3-2zm-6-4l1-1 2 1-1 1-2-1zm11-8l-4-3-2 2c-3 2-4 2-3-2 0-3-2-4-5-2l-1 4c1 2 0 2-3-1l-4-2c-3 1-7-2-13-10-5-6-6-9-2-8l4 1 2 2c1 4 5 9 6 8v-2l-1-9c1-6 1-6 4-7 7-3 12-1 12 4 0 2 4 8 6 8l3-6 4-8 9-20c0-5 2-5 4-1 2 3 3 3 5 0s8-6 10-5c1 1 1 5-1 8-3 4-3 4 2 3 3 0 4 0 5 3l3 3c2 0 1 3-2 4-2 1-2 1 0 2s2 2-2 4-5 4-5 9-3 12-5 12c-1 0-3-5-3-9l-3-4c-3-3-3-4 1-4s8-5 7-7l-3-1-3-2c-1-2-1-2-1 0 0 3-2 4-6 5l-3 3-3 2-4 3c-4 4-4 4-4 10s1 7 3 9c3 2 4 1 3-4 0-5 0-5 2-7 3-2 9-1 12 1v5l-4 5-3 2c-1 2-8 5-10 5l-4-3zm-42-35c0-3 1-10 5-19s6-11 8-8l4 2c2 0 3 2 2 4h-3c-4-1-4 0-12 20-1 3-3 3-4 1zm26-9l2-1c1 1 0 3-1 3l-1-2zm-1-8l-1-2 4-4 3-4c2 0 2 0 0 5l-2 5c0 3-2 3-4 0zm-63-4l1-1 2-1c2-1 2-1 0 1-2 3-3 3-3 1zm8-1c-2-2-1-3 5-5 5-1 6-1 2 3-4 3-5 3-7 2zm17-10l34-19 5-1 7 1c10 0 21 2 22 3l5 3 10 8-3-1c-3-3-9-4-14-4-5 1-5 1-5 4 0 2 1 3 2 3l2 1-4 1c-4 0-5 0-4-3l-1-4c-2-2-10-5-12-5h-3c-2-1-3-1-6 1-2 2-4 2-6 2l-16 5-13 5zm47-5l2-1c3 0 3 3 0 3l-2-2z" fill="#5d3013"/><path d="M227 176l2-1c1 0 2 3 0 3l-2-2zm-17-2c-1-1-1-4 1-4s5-3 3-5c-1-1-1-3 1-3s2 0 2 2v3c2 1 1 3-2 5-4 3-4 3-5 2zm11-3c-1-2 1-6 3-6s6 2 6 4l-3 1-5 1c0 2-1 2-1 0zm47-56c0-2 0-2-2-3-4-1-8-14-4-14 2 0 3 3 3 6 0 2 1 2 3 0 3-3 4-3 5 1 1 2 1 3-1 4s-3 2-2 5c0 2-1 3-2 3v-2zm-64-9c-3-3-3-5-1-6l1-3-2 1c-1 2-10 3-10 2l2-3 2-3c0-2 2-2 5-1s4 1 6-2c3-2 4-2 5-1 2 1 2 3-1 6l-1 1c2 0 2 0 0 2l-1 4-1 4c-1 1-2 1-4-1zm31-4c-1-1 0-1 1-2 2-1 3 0 3 3 0 1-2 1-4-1zm-22 0l1-1 1 1-1 1-1-1zm44-7l1-3c1-1 1-1 2 1v3c-1 1-3 1-3-1zm7 0l1-2 1 1-1 1h-1z" fill="#a4cc41"/></svg>